# xmcd
#
# Track frame offsets:
#	150
#	9285
#	19586
#	30620
#	43370
#	56112
#	68956
#	81471
#	94401
#	107609
#	120761
#	133534
#	149477
#	159954
#	172069
#	186535
#	198386
#	207198
#	220208
#	233616
#	242226
#	253994
#	266407
#	282037
#	296583
#
# Disc length: 4159 seconds
#
# Revision: 0
# Processed by: cddbd v1.5.2PL0 Copyright (c) Steve Scherf et al.
# Submitted via: EasyCDDAExtractor 2010.6.0.0
#
DISCID=76103d19
DTITLE=O'Gwynn James - Pride Of The Hayride Disc 5
DYEAR=1900
DGENRE=
TTITLE0=If You Don't Believe I Love You (Cowboy Capitol)
TTITLE1=It's Not The Best Way To Live (Cowboy Capitol)
TTITLE2=I'm The Male She's Waiting For (Cowboy Capitol)
TTITLE3=Release Me (Plantation)
TTITLE4=Faded Love (Plantation)
TTITLE5=I'm So Afraid Of Losing You (Plantation)
TTITLE6=Tonight The Bottle Let Me Down (Plantation)
TTITLE7=Color Of The Blues (Plantation)
TTITLE8=Swinging Doors (Plantation)
TTITLE9=Crazy Arms (Plantation)
TTITLE10=She Thinks I Still Care (Plantation)
TTITLE11=Last Letter (Plantation)
TTITLE12=Together Again (Plantation)
TTITLE13=Your Cheating Heart (Plantation)
TTITLE14=Don't Be Angry
TTITLE15=I Don't Care About Anything But You (Cowboy Capitol)
TTITLE16=Love Power (Cowboy Capitol)
TTITLE17=You Slipped Away (Cowboy Capitol)
TTITLE18=Don't Put Grandma In The Rest Home (Cowboy Capitol)
TTITLE19=I Can't Hold A Candle To Your Old Flame (Cowboy Capitol)
TTITLE20=Big Night At My House (Cowboy Capitol)
TTITLE21=I'm Tired Of Waiting Around (Cowboy Capitol)
TTITLE22=Out Of Marriage Sale (Cowboy Capitol)
TTITLE23=He Died Last Night (Cowboy Capitol)
TTITLE24=As Soon As I Reach Calvary (Cowboy Capitol)
EXTD=
EXTT0=
EXTT1=
EXTT2=
EXTT3=
EXTT4=
EXTT5=
EXTT6=
EXTT7=
EXTT8=
EXTT9=
EXTT10=
EXTT11=
EXTT12=
EXTT13=
EXTT14=
EXTT15=
EXTT16=
EXTT17=
EXTT18=
EXTT19=
EXTT20=
EXTT21=
EXTT22=
EXTT23=
EXTT24=
PLAYORDER=
